<svg width="301.055" height="301.055" xmlns="http://www.w3.org/2000/svg">
 <g>
  <title>background</title>
  <rect x="-1" y="-1" width="303.055" height="303.055" id="canvas_background" fill="none"/>
 </g>

 <g>
  <title>Layer 1</title>
  <path stroke="#103461" fill="#103461" d="m189.798,31.551c0,-4.143 -3.357,-7.5 -7.5,-7.5l-79.453,0c-4.143,0 -7.5,3.357 -7.5,7.5l0,47.687c0,4.143 3.357,7.5 7.5,7.5l71.953,0l0,21.186l-71.953,71.976l-18.532,-18.54c-1.571,-1.571 -3.769,-2.362 -5.97,-2.168c-2.213,0.197 -4.225,1.365 -5.493,3.189l-71.508,102.84c-1.594,2.292 -1.782,5.28 -0.488,7.755c1.293,2.476 3.855,4.026 6.647,4.026l286.035,0c0.008,0.001 0.016,0.001 0.02,0c4.143,0 7.5,-3.357 7.5,-7.5c0,-1.783 -0.622,-3.421 -1.661,-4.708l-109.597,-156.134l0,-77.109zm-79.453,40.187l0,-32.687l64.453,0l0,32.687l-64.453,0zm-88.495,190.265l58.195,-83.694l17.495,17.503c1.407,1.406 3.315,2.197 5.305,2.197c1.989,0 3.897,-0.791 5.304,-2.197l73.141,-73.165l97.818,139.357l-257.258,0l0,-0.001z" id="svg_1"/>
  <g id="svg_2"/>
  <g id="svg_3"/>
  <g id="svg_4"/>
  <g id="svg_5"/>
  <g id="svg_6"/>
  <g id="svg_7"/>
  <g id="svg_8"/>
  <g id="svg_9"/>
  <g id="svg_10"/>
  <g id="svg_11"/>
  <g id="svg_12"/>
  <g id="svg_13"/>
  <g id="svg_14"/>
  <g id="svg_15"/>
  <g id="svg_16"/>
  <rect fill="#000" stroke-width="31" x="119.027497" y="45.027496" width="44.000001" height="19.999999" id="svg_17" stroke="#103461"/>
  <path id="svg_38" d="m141.666284,161.166231l21.999948,-14.333288l5.166653,20.166613l8.999976,-21.499943l9.999973,36.166571l0.833331,-32.166581l8.83331,22.166608l-2.833326,-20.166613l20.499946,14.499961l71.999809,102.666394l-273.332607,0.166666l65.499826,-100.333067l24.333269,18.833283l37.999892,-26.166605z" fill-opacity="null" stroke-opacity="null" stroke-width="1.5" stroke="#103461" fill="#103461"/>
 </g>
</svg>